<mxfile host="app.diagrams.net" modified="2024-04-15T10:54:56.390Z" agent="Mozilla/5.0 (X11; Linux x86_64) AppleWebKit/537.36 (KHTML, like Gecko) Chrome/123.0.0.0 Safari/537.36" etag="LPj_HFpAmdqYfkvLZera" version="24.2.1" type="device">
  <diagram name="Page-1" id="cySFy-3aZRwfbmT6mP0Z">
    <mxGraphModel dx="1154" dy="512" grid="1" gridSize="10" guides="1" tooltips="1" connect="1" arrows="1" fold="1" page="1" pageScale="1" pageWidth="850" pageHeight="1100" math="0" shadow="0">
      <root>
        <mxCell id="0" />
        <mxCell id="1" parent="0" />
        <mxCell id="xK_oKW9I7FNf2GqKc3Hd-30" value="" style="ellipse;whiteSpace=wrap;html=1;aspect=fixed;" vertex="1" parent="1">
          <mxGeometry x="201" y="90" width="320" height="320" as="geometry" />
        </mxCell>
        <mxCell id="xK_oKW9I7FNf2GqKc3Hd-1" value="node 3" style="ellipse;whiteSpace=wrap;html=1;aspect=fixed;fillColor=#3399FF;" vertex="1" parent="1">
          <mxGeometry x="430" y="160" width="80" height="80" as="geometry" />
        </mxCell>
        <mxCell id="xK_oKW9I7FNf2GqKc3Hd-2" value="Client" style="shape=umlActor;verticalLabelPosition=bottom;verticalAlign=top;html=1;outlineConnect=0;" vertex="1" parent="1">
          <mxGeometry x="80" y="220" width="30" height="60" as="geometry" />
        </mxCell>
        <mxCell id="xK_oKW9I7FNf2GqKc3Hd-3" value="node 2" style="ellipse;whiteSpace=wrap;html=1;aspect=fixed;fillColor=#3399FF;" vertex="1" parent="1">
          <mxGeometry x="321" y="90" width="80" height="80" as="geometry" />
        </mxCell>
        <mxCell id="xK_oKW9I7FNf2GqKc3Hd-4" value="node 5" style="ellipse;whiteSpace=wrap;html=1;aspect=fixed;fillColor=#3399FF;" vertex="1" parent="1">
          <mxGeometry x="231" y="290" width="80" height="80" as="geometry" />
        </mxCell>
        <mxCell id="xK_oKW9I7FNf2GqKc3Hd-5" value="node 1" style="ellipse;whiteSpace=wrap;html=1;aspect=fixed;fillColor=#00FF80;" vertex="1" parent="1">
          <mxGeometry x="212" y="160" width="80" height="80" as="geometry" />
        </mxCell>
        <mxCell id="xK_oKW9I7FNf2GqKc3Hd-6" value="node 4" style="ellipse;whiteSpace=wrap;html=1;aspect=fixed;fillColor=#3399FF;" vertex="1" parent="1">
          <mxGeometry x="410" y="290" width="80" height="80" as="geometry" />
        </mxCell>
        <mxCell id="xK_oKW9I7FNf2GqKc3Hd-8" value="" style="endArrow=classic;startArrow=classic;html=1;rounded=0;entryX=0;entryY=0.5;entryDx=0;entryDy=0;" edge="1" parent="1" source="xK_oKW9I7FNf2GqKc3Hd-2" target="xK_oKW9I7FNf2GqKc3Hd-5">
          <mxGeometry width="50" height="50" relative="1" as="geometry">
            <mxPoint x="150" y="280" as="sourcePoint" />
            <mxPoint x="200" y="230" as="targetPoint" />
          </mxGeometry>
        </mxCell>
        <mxCell id="xK_oKW9I7FNf2GqKc3Hd-9" value="grpc" style="edgeLabel;html=1;align=center;verticalAlign=middle;resizable=0;points=[];" vertex="1" connectable="0" parent="xK_oKW9I7FNf2GqKc3Hd-8">
          <mxGeometry x="0.0368" y="-1" relative="1" as="geometry">
            <mxPoint as="offset" />
          </mxGeometry>
        </mxCell>
        <mxCell id="xK_oKW9I7FNf2GqKc3Hd-10" value="" style="rounded=0;whiteSpace=wrap;html=1;fillColor=#00FF80;" vertex="1" parent="1">
          <mxGeometry x="80" y="130" width="10" height="10" as="geometry" />
        </mxCell>
        <mxCell id="xK_oKW9I7FNf2GqKc3Hd-11" value="" style="rounded=0;whiteSpace=wrap;html=1;fillColor=#3399FF;" vertex="1" parent="1">
          <mxGeometry x="80" y="150" width="10" height="10" as="geometry" />
        </mxCell>
        <mxCell id="xK_oKW9I7FNf2GqKc3Hd-12" value="- leader" style="text;html=1;align=center;verticalAlign=middle;whiteSpace=wrap;rounded=0;" vertex="1" parent="1">
          <mxGeometry x="90" y="120" width="60" height="30" as="geometry" />
        </mxCell>
        <mxCell id="xK_oKW9I7FNf2GqKc3Hd-13" value="- follower" style="text;html=1;align=center;verticalAlign=middle;whiteSpace=wrap;rounded=0;" vertex="1" parent="1">
          <mxGeometry x="94" y="140" width="60" height="30" as="geometry" />
        </mxCell>
        <mxCell id="xK_oKW9I7FNf2GqKc3Hd-14" value="" style="endArrow=classic;startArrow=classic;html=1;rounded=0;dashed=1;" edge="1" parent="1" target="xK_oKW9I7FNf2GqKc3Hd-4">
          <mxGeometry width="50" height="50" relative="1" as="geometry">
            <mxPoint x="110" y="250" as="sourcePoint" />
            <mxPoint x="240" y="260" as="targetPoint" />
          </mxGeometry>
        </mxCell>
        <mxCell id="xK_oKW9I7FNf2GqKc3Hd-15" value="grpc" style="edgeLabel;html=1;align=center;verticalAlign=middle;resizable=0;points=[];" vertex="1" connectable="0" parent="xK_oKW9I7FNf2GqKc3Hd-14">
          <mxGeometry x="0.0368" y="-1" relative="1" as="geometry">
            <mxPoint as="offset" />
          </mxGeometry>
        </mxCell>
        <mxCell id="xK_oKW9I7FNf2GqKc3Hd-20" value="" style="endArrow=classic;startArrow=classic;html=1;rounded=0;" edge="1" parent="1" source="xK_oKW9I7FNf2GqKc3Hd-5" target="xK_oKW9I7FNf2GqKc3Hd-3">
          <mxGeometry width="50" height="50" relative="1" as="geometry">
            <mxPoint x="480" y="310" as="sourcePoint" />
            <mxPoint x="600" y="310" as="targetPoint" />
          </mxGeometry>
        </mxCell>
        <mxCell id="xK_oKW9I7FNf2GqKc3Hd-21" value="grpc" style="edgeLabel;html=1;align=center;verticalAlign=middle;resizable=0;points=[];" vertex="1" connectable="0" parent="xK_oKW9I7FNf2GqKc3Hd-20">
          <mxGeometry x="0.0368" y="-1" relative="1" as="geometry">
            <mxPoint as="offset" />
          </mxGeometry>
        </mxCell>
        <mxCell id="xK_oKW9I7FNf2GqKc3Hd-22" value="" style="endArrow=classic;startArrow=classic;html=1;rounded=0;" edge="1" parent="1" source="xK_oKW9I7FNf2GqKc3Hd-5" target="xK_oKW9I7FNf2GqKc3Hd-1">
          <mxGeometry width="50" height="50" relative="1" as="geometry">
            <mxPoint x="301" y="310" as="sourcePoint" />
            <mxPoint x="421" y="310" as="targetPoint" />
          </mxGeometry>
        </mxCell>
        <mxCell id="xK_oKW9I7FNf2GqKc3Hd-23" value="grpc" style="edgeLabel;html=1;align=center;verticalAlign=middle;resizable=0;points=[];" vertex="1" connectable="0" parent="xK_oKW9I7FNf2GqKc3Hd-22">
          <mxGeometry x="0.0368" y="-1" relative="1" as="geometry">
            <mxPoint as="offset" />
          </mxGeometry>
        </mxCell>
        <mxCell id="xK_oKW9I7FNf2GqKc3Hd-24" value="" style="endArrow=classic;startArrow=classic;html=1;rounded=0;" edge="1" parent="1" source="xK_oKW9I7FNf2GqKc3Hd-5" target="xK_oKW9I7FNf2GqKc3Hd-6">
          <mxGeometry width="50" height="50" relative="1" as="geometry">
            <mxPoint x="140" y="280" as="sourcePoint" />
            <mxPoint x="260" y="280" as="targetPoint" />
          </mxGeometry>
        </mxCell>
        <mxCell id="xK_oKW9I7FNf2GqKc3Hd-25" value="grpc" style="edgeLabel;html=1;align=center;verticalAlign=middle;resizable=0;points=[];" vertex="1" connectable="0" parent="xK_oKW9I7FNf2GqKc3Hd-24">
          <mxGeometry x="0.0368" y="-1" relative="1" as="geometry">
            <mxPoint as="offset" />
          </mxGeometry>
        </mxCell>
        <mxCell id="xK_oKW9I7FNf2GqKc3Hd-26" value="" style="endArrow=classic;startArrow=classic;html=1;rounded=0;" edge="1" parent="1" source="xK_oKW9I7FNf2GqKc3Hd-5" target="xK_oKW9I7FNf2GqKc3Hd-4">
          <mxGeometry width="50" height="50" relative="1" as="geometry">
            <mxPoint x="150" y="290" as="sourcePoint" />
            <mxPoint x="270" y="290" as="targetPoint" />
          </mxGeometry>
        </mxCell>
        <mxCell id="xK_oKW9I7FNf2GqKc3Hd-27" value="grpc" style="edgeLabel;html=1;align=center;verticalAlign=middle;resizable=0;points=[];" vertex="1" connectable="0" parent="xK_oKW9I7FNf2GqKc3Hd-26">
          <mxGeometry x="0.0368" y="-1" relative="1" as="geometry">
            <mxPoint as="offset" />
          </mxGeometry>
        </mxCell>
        <mxCell id="xK_oKW9I7FNf2GqKc3Hd-28" value="" style="endArrow=classic;startArrow=classic;html=1;rounded=0;dashed=1;edgeStyle=orthogonalEdgeStyle;entryX=0;entryY=0;entryDx=0;entryDy=0;exitX=0.079;exitY=0.73;exitDx=0;exitDy=0;exitPerimeter=0;" edge="1" parent="1" source="xK_oKW9I7FNf2GqKc3Hd-5" target="xK_oKW9I7FNf2GqKc3Hd-4">
          <mxGeometry width="50" height="50" relative="1" as="geometry">
            <mxPoint x="230" y="300" as="sourcePoint" />
            <mxPoint x="271" y="354" as="targetPoint" />
            <Array as="points">
              <mxPoint x="218" y="300" />
              <mxPoint x="230" y="300" />
              <mxPoint x="230" y="302" />
            </Array>
          </mxGeometry>
        </mxCell>
        <mxCell id="xK_oKW9I7FNf2GqKc3Hd-29" value="resend&amp;nbsp;&lt;div&gt;to leader&lt;/div&gt;" style="edgeLabel;html=1;align=center;verticalAlign=middle;resizable=0;points=[];" vertex="1" connectable="0" parent="xK_oKW9I7FNf2GqKc3Hd-28">
          <mxGeometry x="0.0368" y="-1" relative="1" as="geometry">
            <mxPoint x="3" y="-4" as="offset" />
          </mxGeometry>
        </mxCell>
      </root>
    </mxGraphModel>
  </diagram>
</mxfile>
